<?xml version="1.0" encoding="UTF-8" standalone="no"?>
<!-- Created with Inkscape (http://www.inkscape.org/) -->

<svg
   width="180.23801mm"
   height="151.39737mm"
   viewBox="0 0 180.23801 151.39737"
   version="1.1"
   id="svg19172"
   inkscape:export-filename="fundo1.svg"
   inkscape:export-xdpi="96"
   inkscape:export-ydpi="96"
   inkscape:version="1.2.2 (b0a8486, 2022-12-01)"
   sodipodi:docname="background1.svg"
   xmlns:inkscape="http://www.inkscape.org/namespaces/inkscape"
   xmlns:sodipodi="http://sodipodi.sourceforge.net/DTD/sodipodi-0.dtd"
   xmlns="http://www.w3.org/2000/svg"
   xmlns:svg="http://www.w3.org/2000/svg">
  <sodipodi:namedview
     id="namedview19174"
     pagecolor="#74587a"
     bordercolor="#000000"
     borderopacity="0.25"
     inkscape:showpageshadow="2"
     inkscape:pageopacity="0"
     inkscape:pagecheckerboard="0"
     inkscape:deskcolor="#d1d1d1"
     inkscape:document-units="mm"
     showgrid="false"
     inkscape:zoom="1.1394408"
     inkscape:cx="297.07556"
     inkscape:cy="286.10526"
     inkscape:window-width="1440"
     inkscape:window-height="872"
     inkscape:window-x="0"
     inkscape:window-y="28"
     inkscape:window-maximized="0"
     inkscape:current-layer="layer1" />
  <defs
     id="defs19169">
    <clipPath
       clipPathUnits="userSpaceOnUse"
       id="clipath_lpe_path-effect5065-6-3">
      <ellipse
         style="display:none;fill:#ffffff;stroke:none;stroke-width:3.15129;stroke-opacity:1;paint-order:fill markers stroke"
         id="ellipse9286"
         cx="373.38577"
         cy="331.24652"
         rx="66.215378"
         ry="63.815079"
         d="m 439.60115,331.24652 a 66.215378,63.815079 0 0 1 -66.21538,63.81508 66.215378,63.815079 0 0 1 -66.21538,-63.81508 66.215378,63.815079 0 0 1 66.21538,-63.81508 66.215378,63.815079 0 0 1 66.21538,63.81508 z" />
      <path
         id="lpe_path-effect5065-6-3"
         style="fill:#ffffff;stroke:none;stroke-width:3.15129;stroke-opacity:1;paint-order:fill markers stroke"
         class="powerclip"
         d="M 289.36864,270.69899 H 431.79939 V 408.32915 H 289.36864 Z m 150.23251,60.54753 a 66.215378,63.815079 0 0 0 -66.21538,-63.81508 66.215378,63.815079 0 0 0 -66.21538,63.81508 66.215378,63.815079 0 0 0 66.21538,63.81508 66.215378,63.815079 0 0 0 66.21538,-63.81508 z" />
    </clipPath>
    <inkscape:path-effect
       effect="powerclip"
       id="path-effect5065-6-3"
       is_visible="true"
       lpeversion="1"
       inverse="true"
       flatten="false"
       hide_clip="false"
       message="Usar a regra de preenchimento par ou ímpar na caixa de diálogo &lt;b&gt;preenchimento e contorno&lt;/b&gt; se nenhum resultado nivelar após converter o clipe em caminhos." />
    <clipPath
       clipPathUnits="userSpaceOnUse"
       id="clipath_lpe_path-effect5065-1">
      <ellipse
         style="display:none;fill:#ffffff;stroke:none;stroke-width:3.15129;stroke-opacity:1;paint-order:fill markers stroke"
         id="ellipse9281"
         cx="373.38577"
         cy="331.24652"
         rx="66.215378"
         ry="63.815079"
         d="m 439.60115,331.24652 a 66.215378,63.815079 0 0 1 -66.21538,63.81508 66.215378,63.815079 0 0 1 -66.21538,-63.81508 66.215378,63.815079 0 0 1 66.21538,-63.81508 66.215378,63.815079 0 0 1 66.21538,63.81508 z" />
      <path
         id="lpe_path-effect5065-1"
         style="fill:#ffffff;stroke:none;stroke-width:3.15129;stroke-opacity:1;paint-order:fill markers stroke"
         class="powerclip"
         d="M 289.36864,270.69899 H 431.79939 V 408.32915 H 289.36864 Z m 150.23251,60.54753 a 66.215378,63.815079 0 0 0 -66.21538,-63.81508 66.215378,63.815079 0 0 0 -66.21538,63.81508 66.215378,63.815079 0 0 0 66.21538,63.81508 66.215378,63.815079 0 0 0 66.21538,-63.81508 z" />
    </clipPath>
    <inkscape:path-effect
       effect="powerclip"
       id="path-effect5065-1"
       is_visible="true"
       lpeversion="1"
       inverse="true"
       flatten="false"
       hide_clip="false"
       message="Usar a regra de preenchimento par ou ímpar na caixa de diálogo &lt;b&gt;preenchimento e contorno&lt;/b&gt; se nenhum resultado nivelar após converter o clipe em caminhos." />
  </defs>
  <g
     inkscape:label="Camada 1"
     inkscape:groupmode="layer"
     id="layer1"
     transform="translate(-14.126203,-61.067008)">
    <g
       id="g19392"
       transform="rotate(12.370895,103.82414,137.7843)"
       style="opacity:0.12121212">
      <path
         style="display:inline;fill:#ffffff;fill-opacity:0.922495;stroke:none;stroke-width:3.1513;stroke-opacity:1;paint-order:fill markers stroke"
         id="path2876"
         clip-path="url(#clipath_lpe_path-effect5065-1)"
         inkscape:path-effect="#path-effect5065-1"
         sodipodi:type="arc"
         sodipodi:cx="360.58401"
         sodipodi:cy="339.51407"
         sodipodi:rx="66.215378"
         sodipodi:ry="63.815079"
         d="m 426.79939,339.51407 a 66.215378,63.815079 0 0 1 -66.21538,63.81508 66.215378,63.815079 0 0 1 -66.21537,-63.81508 66.215378,63.815079 0 0 1 66.21537,-63.81508 66.215378,63.815079 0 0 1 66.21538,63.81508 z"
         transform="matrix(0.70917432,0.88411417,-1.0810583,0.79485286,210.38719,-450.87687)" />
      <path
         style="display:inline;fill:#ffffff;fill-opacity:1;stroke:none;stroke-width:3.1513;stroke-opacity:1;paint-order:fill markers stroke"
         id="path2876-5"
         clip-path="url(#clipath_lpe_path-effect5065-6-3)"
         inkscape:path-effect="#path-effect5065-6-3"
         sodipodi:type="arc"
         sodipodi:cx="360.58401"
         sodipodi:cy="339.51407"
         sodipodi:rx="66.215378"
         sodipodi:ry="63.815079"
         d="m 426.79939,339.51407 a 66.215378,63.815079 0 0 1 -66.21538,63.81508 66.215378,63.815079 0 0 1 -66.21537,-63.81508 66.215378,63.815079 0 0 1 66.21537,-63.81508 66.215378,63.815079 0 0 1 66.21538,63.81508 z"
         transform="matrix(0.3379974,-1.1044596,1.1511081,0.18180081,-397.45401,471.46703)" />
    </g>
  </g>
</svg>
