<?xml version="1.0" encoding="UTF-8" standalone="no"?>
<!-- Created with Inkscape (http://www.inkscape.org/) -->

<svg
   width="2684.0271"
   height="988.36298"
   viewBox="0 0 710.14837 261.50392"
   version="1.1"
   id="svg50899"
   inkscape:version="1.2.2 (b0a8486, 2022-12-01)"
   sodipodi:docname="logo1.svg"
   xmlns:inkscape="http://www.inkscape.org/namespaces/inkscape"
   xmlns:sodipodi="http://sodipodi.sourceforge.net/DTD/sodipodi-0.dtd"
   xmlns="http://www.w3.org/2000/svg"
   xmlns:svg="http://www.w3.org/2000/svg">
  <sodipodi:namedview
     id="namedview50901"
     pagecolor="#b274bf"
     bordercolor="#000000"
     borderopacity="0.25"
     inkscape:showpageshadow="2"
     inkscape:pageopacity="0"
     inkscape:pagecheckerboard="0"
     inkscape:deskcolor="#d1d1d1"
     inkscape:document-units="mm"
     showgrid="false"
     inkscape:zoom="0.24532654"
     inkscape:cx="1491.8891"
     inkscape:cy="701.10637"
     inkscape:window-width="1440"
     inkscape:window-height="872"
     inkscape:window-x="0"
     inkscape:window-y="28"
     inkscape:window-maximized="0"
     inkscape:current-layer="layer1"
     guidecolor="#0086e5"
     guideopacity="0.97647059" />
  <defs
     id="defs50896">
    <clipPath
       clipPathUnits="userSpaceOnUse"
       id="clipPath5061">
      <ellipse
         style="display:none;fill:#ffffff;stroke:none;stroke-width:3.15129;stroke-opacity:1;paint-order:fill markers stroke"
         id="ellipse5063"
         cx="373.38577"
         cy="331.24652"
         rx="66.215378"
         ry="63.815079"
         d="m 439.60115,331.24652 a 66.215378,63.815079 0 0 1 -66.21538,63.81508 66.215378,63.815079 0 0 1 -66.21538,-63.81508 66.215378,63.815079 0 0 1 66.21538,-63.81508 66.215378,63.815079 0 0 1 66.21538,63.81508 z" />
      <path
         id="lpe_path-effect5065"
         style="fill:#ffffff;stroke:none;stroke-width:3.15129;stroke-opacity:1;paint-order:fill markers stroke"
         class="powerclip"
         d="M 289.36864,270.69899 H 431.79939 V 408.32915 H 289.36864 Z m 150.23251,60.54753 a 66.215378,63.815079 0 0 0 -66.21538,-63.81508 66.215378,63.815079 0 0 0 -66.21538,63.81508 66.215378,63.815079 0 0 0 66.21538,63.81508 66.215378,63.815079 0 0 0 66.21538,-63.81508 z" />
    </clipPath>
    <inkscape:path-effect
       effect="powerclip"
       id="path-effect5065"
       is_visible="true"
       lpeversion="1"
       inverse="true"
       flatten="false"
       hide_clip="false"
       message="Usar a regra de preenchimento par ou ímpar na caixa de diálogo &lt;b&gt;preenchimento e contorno&lt;/b&gt; se nenhum resultado nivelar após converter o clipe em caminhos." />
    <clipPath
       clipPathUnits="userSpaceOnUse"
       id="clipath_lpe_path-effect5065-6">
      <ellipse
         style="display:none;fill:#ffffff;stroke:none;stroke-width:3.15129;stroke-opacity:1;paint-order:fill markers stroke"
         id="ellipse5296"
         cx="373.38577"
         cy="331.24652"
         rx="66.215378"
         ry="63.815079"
         d="m 439.60115,331.24652 a 66.215378,63.815079 0 0 1 -66.21538,63.81508 66.215378,63.815079 0 0 1 -66.21538,-63.81508 66.215378,63.815079 0 0 1 66.21538,-63.81508 66.215378,63.815079 0 0 1 66.21538,63.81508 z" />
      <path
         id="lpe_path-effect5065-6"
         style="fill:#ffffff;stroke:none;stroke-width:3.15129;stroke-opacity:1;paint-order:fill markers stroke"
         class="powerclip"
         d="M 289.36864,270.69899 H 431.79939 V 408.32915 H 289.36864 Z m 150.23251,60.54753 a 66.215378,63.815079 0 0 0 -66.21538,-63.81508 66.215378,63.815079 0 0 0 -66.21538,63.81508 66.215378,63.815079 0 0 0 66.21538,63.81508 66.215378,63.815079 0 0 0 66.21538,-63.81508 z" />
    </clipPath>
    <inkscape:path-effect
       effect="powerclip"
       id="path-effect5065-6"
       is_visible="true"
       lpeversion="1"
       inverse="true"
       flatten="false"
       hide_clip="false"
       message="Usar a regra de preenchimento par ou ímpar na caixa de diálogo &lt;b&gt;preenchimento e contorno&lt;/b&gt; se nenhum resultado nivelar após converter o clipe em caminhos." />
    <clipPath
       clipPathUnits="userSpaceOnUse"
       id="clipPath5061-8">
      <ellipse
         style="display:none;fill:#ffffff;stroke:none;stroke-width:3.15129;stroke-opacity:1;paint-order:fill markers stroke"
         id="ellipse5063-0"
         cx="373.38577"
         cy="331.24652"
         rx="66.215378"
         ry="63.815079"
         d="m 439.60115,331.24652 a 66.215378,63.815079 0 0 1 -66.21538,63.81508 66.215378,63.815079 0 0 1 -66.21538,-63.81508 66.215378,63.815079 0 0 1 66.21538,-63.81508 66.215378,63.815079 0 0 1 66.21538,63.81508 z" />
      <path
         id="lpe_path-effect5065-2"
         style="fill:#ffffff;stroke:none;stroke-width:3.15129;stroke-opacity:1;paint-order:fill markers stroke"
         class="powerclip"
         d="M 289.36864,270.69899 H 431.79939 V 408.32915 H 289.36864 Z m 150.23251,60.54753 a 66.215378,63.815079 0 0 0 -66.21538,-63.81508 66.215378,63.815079 0 0 0 -66.21538,63.81508 66.215378,63.815079 0 0 0 66.21538,63.81508 66.215378,63.815079 0 0 0 66.21538,-63.81508 z" />
    </clipPath>
    <inkscape:path-effect
       effect="powerclip"
       id="path-effect5065-4"
       is_visible="true"
       lpeversion="1"
       inverse="true"
       flatten="false"
       hide_clip="false"
       message="Usar a regra de preenchimento par ou ímpar na caixa de diálogo &lt;b&gt;preenchimento e contorno&lt;/b&gt; se nenhum resultado nivelar após converter o clipe em caminhos." />
    <clipPath
       clipPathUnits="userSpaceOnUse"
       id="clipath_lpe_path-effect5065-6-8">
      <ellipse
         style="display:none;fill:#ffffff;stroke:none;stroke-width:3.15129;stroke-opacity:1;paint-order:fill markers stroke"
         id="ellipse5296-3"
         cx="373.38577"
         cy="331.24652"
         rx="66.215378"
         ry="63.815079"
         d="m 439.60115,331.24652 a 66.215378,63.815079 0 0 1 -66.21538,63.81508 66.215378,63.815079 0 0 1 -66.21538,-63.81508 66.215378,63.815079 0 0 1 66.21538,-63.81508 66.215378,63.815079 0 0 1 66.21538,63.81508 z" />
      <path
         id="lpe_path-effect5065-6-9"
         style="fill:#ffffff;stroke:none;stroke-width:3.15129;stroke-opacity:1;paint-order:fill markers stroke"
         class="powerclip"
         d="M 289.36864,270.69899 H 431.79939 V 408.32915 H 289.36864 Z m 150.23251,60.54753 a 66.215378,63.815079 0 0 0 -66.21538,-63.81508 66.215378,63.815079 0 0 0 -66.21538,63.81508 66.215378,63.815079 0 0 0 66.21538,63.81508 66.215378,63.815079 0 0 0 66.21538,-63.81508 z" />
    </clipPath>
    <inkscape:path-effect
       effect="powerclip"
       id="path-effect5065-6-0"
       is_visible="true"
       lpeversion="1"
       inverse="true"
       flatten="false"
       hide_clip="false"
       message="Usar a regra de preenchimento par ou ímpar na caixa de diálogo &lt;b&gt;preenchimento e contorno&lt;/b&gt; se nenhum resultado nivelar após converter o clipe em caminhos." />
    <clipPath
       clipPathUnits="userSpaceOnUse"
       id="clipath_lpe_path-effect5065-4">
      <ellipse
         style="display:none;fill:#ffffff;stroke:none;stroke-width:3.15129;stroke-opacity:1;paint-order:fill markers stroke"
         id="ellipse972"
         cx="373.38577"
         cy="331.24652"
         rx="66.215378"
         ry="63.815079" />
    </clipPath>
    <clipPath
       clipPathUnits="userSpaceOnUse"
       id="clipath_lpe_path-effect5065-6-0">
      <ellipse
         style="display:none;fill:#ffffff;stroke:none;stroke-width:3.15129;stroke-opacity:1;paint-order:fill markers stroke"
         id="ellipse977"
         cx="373.38577"
         cy="331.24652"
         rx="66.215378"
         ry="63.815079" />
    </clipPath>
  </defs>
  <g
     inkscape:label="Camada 1"
     inkscape:groupmode="layer"
     id="layer1"
     transform="translate(277.8022,-3.880762)">
    <g
       id="g8186"
       transform="translate(21.991028,5.3254118)">
      <path
         style="display:inline;fill:#ffffff;fill-opacity:1;stroke:none;stroke-width:3.1513;stroke-opacity:1;paint-order:fill markers stroke"
         id="path2876"
         clip-path="url(#clipPath5061)"
         inkscape:path-effect="#path-effect5065"
         sodipodi:type="arc"
         sodipodi:cx="360.58401"
         sodipodi:cy="339.51407"
         sodipodi:rx="66.215378"
         sodipodi:ry="63.815079"
         d="m 426.79939,339.51407 a 66.215378,63.815079 0 0 1 -66.21538,63.81508 66.215378,63.815079 0 0 1 -66.21537,-63.81508 66.215378,63.815079 0 0 1 66.21537,-63.81508 66.215378,63.815079 0 0 1 66.21538,63.81508 z"
         transform="matrix(1.0359974,1.2915583,-1.5792641,1.1611609,34.77435,-727.56167)" />
      <path
         style="display:inline;fill:#ffffff;fill-opacity:1;stroke:none;stroke-width:3.1513;stroke-opacity:1;paint-order:fill markers stroke"
         id="path2876-5"
         clip-path="url(#clipath_lpe_path-effect5065-6)"
         inkscape:path-effect="#path-effect5065-6"
         sodipodi:type="arc"
         sodipodi:cx="360.58401"
         sodipodi:cy="339.51407"
         sodipodi:rx="66.215378"
         sodipodi:ry="63.815079"
         d="m 426.79939,339.51407 a 66.215378,63.815079 0 0 1 -66.21538,63.81508 66.215378,63.815079 0 0 1 -66.21537,-63.81508 66.215378,63.815079 0 0 1 66.21537,-63.81508 66.215378,63.815079 0 0 1 66.21538,63.81508 z"
         transform="matrix(0.49376353,-1.61345,1.6815964,0.26558375,-853.19053,619.84453)" />
      <g
         id="g1572"
         transform="matrix(1.2634067,0,0,1.2634067,-633.56501,-520.64416)"
         style="opacity:0.983957;fill:#ffffff;fill-opacity:0.771267">
        <path
           id="path1459-2"
           style="display:inline;fill:#ffffff;fill-opacity:0.771267;stroke-width:0.0382638;paint-order:fill markers stroke"
           d="m 392.23811,501.14947 c -1.20686,0.0674 -2.43077,0.11037 -3.60919,0.34512 -1.37421,0.2996 -2.50443,1.00027 -3.44506,1.76255 -1.45045,1.10731 -2.54247,2.42161 -3.52577,3.75369 -1.07755,1.49392 -2.01987,3.03537 -2.84972,4.6038 -0.10618,0.24566 -0.28195,0.48781 -0.30837,0.74432 0.0743,0.1321 0.31468,0.0266 0.45021,0.005 2.07087,-0.55296 4.1307,-1.12945 6.18311,-1.71918 0.22191,-0.0833 0.52411,-0.10343 0.6445,-0.2836 2.91021,-2.94331 5.81762,-5.88816 8.7135,-8.83856 0.0816,-0.11373 0.2564,-0.21238 0.27821,-0.33801 -0.0555,-0.10366 -0.26995,-0.0525 -0.39638,-0.077 -0.7092,-0.0388 -1.42424,0.0163 -2.13503,0.0425 z m 15.28158,-14.81493 c -4.56139,0.25514 -9.1871,0.41692 -13.641,1.30444 -5.19394,1.13229 -9.46569,3.78058 -13.02077,6.66157 -5.48195,4.18514 -9.60942,9.15261 -13.32562,14.18722 -4.07282,5.64628 -7.63421,11.47231 -10.77075,17.40019 -0.40059,0.9284 -1.06553,1.84369 -1.16548,2.81318 0.28096,0.49935 1.18942,0.10162 1.70164,0.0179 7.82697,-2.08996 15.8466,-3.82092 23.36923,-6.49769 0.84882,-0.30204 1.73486,-0.59678 2.43595,-1.07189 13.46931,-9.12767 24.4511,-20.68198 32.26956,-32.98899 0.16919,-0.26633 0.3745,-0.56881 0.29793,-0.85429 -0.0803,-0.29959 -0.36145,-0.62174 -0.74465,-0.71448 -2.47678,-0.59938 -4.72549,-0.35001 -7.40603,-0.25698 z"
           sodipodi:nodetypes="cccccccccccccccccccccaaaascc" />
        <g
           id="g1563"
           style="fill:#ffffff;fill-opacity:0.771267">
          <path
             id="path1472"
             style="fill:#ffffff;fill-opacity:0.771267;stroke-width:4.25938;paint-order:fill markers stroke"
             d="m 377.13936,525.1625 c 9.47846,1.07514 17.31149,5.9034 21.56026,16.33274 -11.42894,12.56513 -23.59441,17.02076 -35.90341,19.89613 2.10109,-12.33104 2.96342,-24.77984 14.34315,-36.22887 z"
             sodipodi:nodetypes="cccc" />
          <path
             id="path1459-2-3"
             style="display:inline;fill:#ffffff;fill-opacity:0.771267;stroke-width:0.0382638;paint-order:fill markers stroke"
             d="m 424.58083,528.5424 c -0.17367,1.19619 -0.32446,2.41155 -0.66229,3.56465 -0.41971,1.3424 -1.21738,2.40639 -2.0597,3.27607 -1.23098,1.34708 -2.63652,2.31886 -4.05019,3.18076 -1.58318,0.94152 -3.20178,1.74412 -4.83732,2.43233 -0.25407,0.0841 -0.51078,0.23781 -0.76862,0.24148 -0.12503,-0.0857 10e-4,-0.31581 0.0351,-0.44887 0.73356,-2.01399 1.48957,-4.01491 2.25813,-6.00727 0.10253,-0.21369 0.14928,-0.51293 0.33937,-0.61695 3.18864,-2.63912 6.37858,-5.2753 9.57303,-7.89952 0.12049,-0.0712 0.23418,-0.23665 0.36124,-0.24729 0.0983,0.0645 0.0285,0.27353 0.042,0.4016 -0.0239,0.70986 -0.14189,1.41724 -0.23071,2.12296 z m 16.1057,-13.91457 c -0.65668,4.52108 -1.22604,9.11447 -2.50315,13.47268 -1.58624,5.07374 -4.60116,9.09512 -7.78465,12.38209 -4.65258,5.09123 -9.96491,8.76422 -15.30784,12.02163 -5.98366,3.55865 -12.10126,6.592 -18.2828,9.19318 -0.96013,0.31709 -1.93053,0.89867 -2.90505,0.91267 -0.47261,-0.32393 0.004,-1.19375 0.13231,-1.69658 2.77253,-7.61199 5.20444,-15.44758 8.53465,-22.70464 0.37576,-0.81886 0.74754,-1.67543 1.28267,-2.33186 10.28071,-12.61125 22.75907,-22.53055 35.70803,-29.23242 0.28022,-0.14503 0.59964,-0.32285 0.87724,-0.22138 0.29133,0.10643 0.58743,0.41491 0.64598,0.8048 0.37848,2.52001 -0.0684,4.73794 -0.39759,7.39981 z"
             sodipodi:nodetypes="cccccccccccccccccccccaaaascc" />
          <path
             id="path1457-9-6"
             style="display:inline;fill:#ffffff;fill-opacity:0.771267;stroke-width:0.340474;paint-order:fill markers stroke"
             d="m 500.20653,427.58127 c -13.71586,1.59068 -27.23564,5.14254 -39.77004,10.84627 -19.19618,8.75803 -35.53832,22.47532 -49.62748,37.75927 -11.20261,11.90222 -20.93579,25.01548 -31.16276,37.7045 -1.79769,2.46999 -4.03579,4.70192 -5.42223,7.42655 8.24938,3.00593 26.28062,9.51082 26.85753,24.67907 0.63641,0.62347 1.57297,1.20674 2.34495,0.40524 8.89858,-5.96923 17.3961,-12.49142 26.07656,-18.75767 11.49485,-8.39247 22.84045,-17.03416 33.14206,-26.821 14.77042,-13.57033 27.27604,-30.05524 33.74865,-48.98389 2.63884,-7.64988 4.28289,-15.62197 5.05552,-23.64738 -0.078,-0.58017 -0.76811,-0.64307 -1.24276,-0.61096 z"
             sodipodi:nodetypes="cccccccccccc" />
          <path
             id="path1472-8"
             style="fill:#ffffff;fill-opacity:0.771267;stroke-width:3.15969;paint-order:fill markers stroke"
             d="m 380.14419,529.30794 c 7.03131,0.79756 12.84202,4.37926 15.99384,12.11596 -8.47822,9.32108 -17.50282,12.62635 -26.63389,14.75937 1.55863,-9.14742 2.19833,-18.3822 10.64005,-26.87533 z"
             sodipodi:nodetypes="cccc" />
          <ellipse
             style="display:inline;fill:#ffffff;fill-opacity:0.771267;stroke-width:0.65641;paint-order:fill markers stroke"
             id="ellipse1463"
             cx="469.13376"
             cy="458.12802"
             rx="11.339279"
             ry="10.949132" />
        </g>
      </g>
    </g>
    <text
       xml:space="preserve"
       style="font-weight:500;font-size:24.8297px;font-family:Ubuntu;-inkscape-font-specification:'Ubuntu, Medium';font-variation-settings:normal;opacity:0.99;vector-effect:none;fill:#ffffff;fill-opacity:1;stroke-width:1.99668;stroke-linecap:butt;stroke-linejoin:miter;stroke-miterlimit:4;stroke-dasharray:none;stroke-dashoffset:0;stroke-opacity:1;-inkscape-stroke:none;paint-order:fill markers stroke;stop-color:#000000"
       x="34.786522"
       y="215.90456"
       id="text50691"><tspan
         sodipodi:role="line"
         id="tspan50689"
         style="font-style:normal;font-variant:normal;font-weight:normal;font-stretch:normal;font-size:24.8297px;font-family:'Andale Mono';-inkscape-font-specification:'Andale Mono, Normal';font-variant-ligatures:normal;font-variant-caps:normal;font-variant-numeric:normal;font-variant-east-asian:normal;fill:#ffffff;stroke-width:1.99668"
         x="34.786522"
         y="215.90456">digital marketing agency</tspan></text>
    <g
       id="g5048"
       transform="matrix(1.350541,0,0,1.3369776,10.149065,27.834584)"
       style="stroke-width:0.74419">
      <path
         d="m 476.98319,395.73771 c 0,-4.25978 0.61733,-7.99481 1.85199,-11.2051 1.29649,-3.21029 2.99426,-5.86495 5.0933,-7.96398 2.09906,-2.16075 4.50677,-3.76589 7.22314,-4.8154 2.71633,-1.11125 5.49448,-1.66688 8.33443,-1.66688 6.66745,0 11.85326,2.06816 15.55741,6.20448 3.76593,4.13631 5.64889,10.30993 5.64889,18.52084 0,0.61736 -0.031,1.32733 -0.0931,2.12991 0,0.74083 -0.0307,1.41993 -0.0922,2.03729 h -31.94827 c 0.30872,3.88938 1.66692,6.91445 4.07461,9.07522 2.46945,2.09903 6.01929,3.14855 10.6495,3.14855 2.71647,0 5.1859,-0.24695 7.40829,-0.74084 2.28427,-0.49389 4.07463,-1.01865 5.37107,-1.57427 l 1.48166,9.16782 c -0.61733,0.30867 -1.48164,0.64822 -2.59293,1.01864 -1.04953,0.30867 -2.28424,0.58649 -3.70412,0.83344 -1.35819,0.30867 -2.83986,0.55562 -4.44502,0.74083 -1.60515,0.18521 -3.24116,0.27782 -4.90802,0.27782 -4.25997,0 -7.96415,-0.61736 -11.11253,-1.85209 -3.14853,-1.29645 -5.74148,-3.05593 -7.77883,-5.27844 -2.03724,-2.28423 -3.54974,-4.93889 -4.53749,-7.96396 -0.98779,-3.08681 -1.48168,-6.45143 -1.48168,-10.09386 z m 32.50404,-5.00063 c 0,-1.54341 -0.21607,-2.9942 -0.64821,-4.35239 -0.43219,-1.41994 -1.08044,-2.62379 -1.94473,-3.61156 -0.80254,-1.04952 -1.82119,-1.85209 -3.05596,-2.40771 -1.17293,-0.61736 -2.59288,-0.92604 -4.25985,-0.92604 -1.72856,0 -3.24109,0.33955 -4.53758,1.01864 -1.29659,0.61736 -2.40783,1.4508 -3.33374,2.50031 -0.86427,1.04952 -1.54335,2.25337 -2.03722,3.61156 -0.49393,1.35819 -0.83347,2.74726 -1.01864,4.16719 6.94531,-2.01976 13.89062,-1.94771 20.83593,0 z"
         id="path2819"
         style="font-weight:500;font-size:92.6042px;font-family:Ubuntu;-inkscape-font-specification:'Ubuntu, Medium';font-variation-settings:normal;opacity:1;vector-effect:none;fill:#ffffff;fill-opacity:0.99811;stroke-width:2.5174;stroke-linecap:butt;stroke-linejoin:miter;stroke-miterlimit:4;stroke-dasharray:none;stroke-dashoffset:0;stroke-opacity:1;-inkscape-stroke:none;paint-order:fill markers stroke;stop-color:#000000"
         sodipodi:nodetypes="ccccscsccccscccccsscccccccccsccscc"
         class="UnoptimicedTransforms"
         transform="matrix(1.1626802,0,0,1.1626802,-534.43149,-364.74552)" />
      <path
         d="m 92.710074,124.33387 q -5.81398,-0.10767 -9.69004,-1.29202 -3.76846,-1.18436 -6.02957,-3.33773 -2.261,-2.26106 -3.22994,-5.49112 -0.86147,-3.33774 -0.86147,-7.53683 V 41.85939 L 85.927144,39.706 v 64.49378 q 0,2.36871 0.32293,3.98375 0.43074,1.61503 1.3997,2.79938 0.96904,1.07671 2.58404,1.72272 1.72265,0.53835 4.30688,0.86135 z"
         id="path2816"
         style="font-weight:500;font-size:92.6042px;font-family:Ubuntu;-inkscape-font-specification:'Ubuntu, Medium';font-variation-settings:normal;opacity:1;vector-effect:none;fill:#ffffff;fill-opacity:0.99811;stroke-width:2.92694;stroke-linecap:butt;stroke-linejoin:miter;stroke-miterlimit:4;stroke-dasharray:none;stroke-dashoffset:0;stroke-opacity:1;-inkscape-stroke:none;paint-order:fill markers stroke;stop-color:#000000" />
      <path
         id="path2813"
         style="font-weight:500;font-size:92.6042px;font-family:Ubuntu;-inkscape-font-specification:'Ubuntu, Medium';font-variation-settings:normal;opacity:1;vector-effect:none;fill:#ffffff;fill-opacity:0.99811;stroke-width:2.92694;stroke-linecap:butt;stroke-linejoin:miter;stroke-miterlimit:4;stroke-dasharray:none;stroke-dashoffset:0;stroke-opacity:1;-inkscape-stroke:none;paint-order:fill markers stroke;stop-color:#000000"
         d="m 119.96633,65.546678 c -3.47585,0 -6.8763,0.64566 -10.20092,1.93769 -3.32474,1.22024 -6.27161,3.08687 -8.84063,5.59915 -2.569106,2.44049 -4.646806,5.526872 -6.233636,9.259402 -1.51122,3.73253 -2.26694,8.07508 -2.26694,13.02783 0,4.23498 0.6043,8.14708 1.81331,11.73605 1.20893,3.51719 3.05996,6.60359 5.55349,9.25941 2.493526,2.58407 5.667236,4.63014 9.520776,6.1375 3.85364,1.4356 8.38727,2.15338 13.60102,2.15338 2.04025,0 4.04307,-0.1079 6.00772,-0.32324 1.96456,-0.21536 3.77756,-0.5027 5.43994,-0.86159 1.73767,-0.28714 3.24931,-0.60966 4.53387,-0.96855 1.36005,-0.43068 2.41736,-0.82594 3.17299,-1.18483 l -1.8133,-10.65876 c -1.58667,0.64601 -3.77802,1.25589 -6.57371,1.83014 -2.72022,0.57423 -5.74248,0.86159 -9.06715,0.86159 -5.66687,0 -10.01181,-1.22037 -13.03445,-3.66087 -2.94682,-2.51228 -4.60907,-6.02971 -4.9869,-10.5518 h 36.89347 c -0.0522,-0.13021 -0.10394,-0.25698 -0.15621,-0.38814 l -0.004,-0.009 -0.002,-0.012 c -3.67087,-9.45943 -7.02702,-19.56336 -10.07174,-30.308352 -3.70593,-1.91606 -8.13345,-2.87498 -13.28439,-2.87498 z m 0.11359,10.87445 c 2.04012,0 3.77775,0.3589 5.21342,1.076682 1.51122,0.64601 2.75794,1.57902 3.74017,2.79928 1.05785,1.14845 1.85132,2.54829 2.3805,4.19921 0.5287,1.57913 0.79309,3.26572 0.79309,5.0602 -8.50056,-2.97465 -17.00113,-2.27797 -25.50169,0 0.22677,-1.65092 0.6423,-3.26595 1.24672,-4.8451 0.6045,-1.57913 1.43562,-2.97835 2.49346,-4.19861 1.13344,-1.22025 2.49351,-2.18964 4.08024,-2.90743 1.58688,-0.789572 3.4384,-1.184232 5.55409,-1.184232 z"
         sodipodi:nodetypes="ccccscccsscccccscccccccccscccccsccs" />
      <path
         d="m 156.68704,123.25717 q -5.38346,-11.08991 -11.08983,-25.409921 -5.59886,-14.42763 -10.2286,-30.901 h 13.8892 q 1.18449,4.737439 2.69177,10.228542 1.61502,5.383445 3.33773,10.874578 1.8304,5.38345 3.66085,10.55159 1.93802,5.060441 3.55304,9.151871 1.61493,-4.09143 3.44535,-9.151871 1.83054,-5.16811 3.55309,-10.55159 1.83041,-5.491133 3.44543,-10.874578 1.61534,-5.491103 2.79943,-10.228542 h 13.45856 q -4.62975,16.473341 -10.33619,30.901 -5.59884,14.319991 -10.98226,25.409921 z"
         id="path2810"
         style="font-weight:500;font-size:92.6042px;font-family:Ubuntu;-inkscape-font-specification:'Ubuntu, Medium';font-variation-settings:normal;opacity:1;vector-effect:none;fill:#ffffff;fill-opacity:0.99811;stroke-width:2.92694;stroke-linecap:butt;stroke-linejoin:miter;stroke-miterlimit:4;stroke-dasharray:none;stroke-dashoffset:0;stroke-opacity:1;-inkscape-stroke:none;paint-order:fill markers stroke;stop-color:#000000" />
      <path
         d="m 233.90289,68.776637 q 3.76836,-1.076683 9.7977,-2.045709 6.02958,-0.969007 13.35113,-0.969007 6.89106,0 11.52059,1.938033 4.62979,1.830391 7.32156,5.275776 2.79921,3.337722 3.87592,8.182848 1.18441,4.737451 1.18441,10.443911 V 123.25719 H 267.92622 V 93.648189 q 0,-4.5221 -0.64598,-7.6445 -0.53816,-3.230072 -1.9381,-5.168116 -1.292,-2.045713 -3.66064,-2.907059 -2.26116,-0.96903 -5.59882,-0.96903 -2.47633,0 -5.16814,0.322998 -2.69174,0.323004 -3.98372,0.538326 v 45.436362 h -13.02793 z"
         id="path2804"
         style="font-weight:500;font-size:92.6042px;font-family:Ubuntu;-inkscape-font-specification:'Ubuntu, Medium';font-variation-settings:normal;opacity:1;vector-effect:none;fill:#ffffff;fill-opacity:0.99811;stroke-width:2.92694;stroke-linecap:butt;stroke-linejoin:miter;stroke-miterlimit:4;stroke-dasharray:none;stroke-dashoffset:0;stroke-opacity:1;-inkscape-stroke:none;paint-order:fill markers stroke;stop-color:#000000" />
      <path
         id="path2907"
         style="font-weight:500;font-size:92.6042px;font-family:Ubuntu;-inkscape-font-specification:'Ubuntu, Medium';font-variation-settings:normal;opacity:1;vector-effect:none;fill:#ffffff;fill-opacity:0.99811;stroke-width:2.92694;stroke-linecap:butt;stroke-linejoin:miter;stroke-miterlimit:4;stroke-dasharray:none;stroke-dashoffset:0;stroke-opacity:1;-inkscape-stroke:none;paint-order:fill markers stroke;stop-color:#000000"
         d="m 205.48691,65.546674 c -3.47586,0 -6.87632,0.645658 -10.20093,1.937685 -1.50497,0.552347 -2.932,1.238343 -4.28212,2.05544 -2.96512,10.333775 -6.25146,20.06833 -9.86506,29.20463 -0.73501,1.879921 -1.46746,3.713081 -2.19785,5.509621 0.23197,0.97242 0.50416,1.92363 0.81714,2.85275 1.20893,3.51719 3.05997,6.60359 5.55349,9.25942 2.49352,2.58407 5.66724,4.63014 9.52077,6.13749 3.85364,1.4356 8.38728,2.15339 13.60103,2.15339 2.04024,0 4.04306,-0.1079 6.00771,-0.32325 1.96456,-0.21535 3.77756,-0.5027 5.43993,-0.86159 1.73768,-0.28714 3.24874,-0.60966 4.53329,-0.96855 1.36006,-0.43068 2.41797,-0.82594 3.17358,-1.18483 l -1.81331,-10.65876 c -1.58666,0.64601 -3.77801,1.25589 -6.57369,1.83014 -2.72024,0.57423 -5.74248,0.86159 -9.06716,0.86159 -5.66686,0 -10.0118,-1.22037 -13.03443,-3.66087 -2.94682,-2.51228 -4.60909,-6.02971 -4.98691,-10.551801 h 39.10212 c 0.0762,-0.71779 0.11417,-1.50713 0.11417,-2.36849 0.0755,-0.93314 0.1129,-1.75883 0.1129,-2.47662 0,-9.546663 -2.30456,-16.724597 -6.91377,-21.533803 -4.53363,-4.809216 -10.88042,-7.213592 -19.04095,-7.213592 z m 0.11289,10.874446 c 2.04012,0 3.77836,0.3589 5.21402,1.076691 1.51122,0.646002 2.75795,1.579018 3.74018,2.799278 1.05786,1.14845 1.85131,2.548287 2.3805,4.199206 0.52869,1.579134 0.79309,3.265724 0.79309,5.060204 -8.50056,-2.64676 -17.00113,-2.62546 -25.5017,0 0.22678,-1.65092 0.6423,-3.26595 1.24673,-4.845099 0.60449,-1.579138 1.43561,-2.978355 2.49345,-4.198615 1.13343,-1.220253 2.49352,-2.189635 4.08025,-2.907433 1.58688,-0.789565 3.43779,-1.184232 5.55348,-1.184232 z"
         sodipodi:nodetypes="scccccccsscccccsccccscssscccccsccs" />
    </g>
  </g>
</svg>
