<svg id="wave" style="transform:rotate(180deg); transition: 0.3s" viewBox="0 0 1440 380" version="1.1" xmlns="http://www.w3.org/2000/svg"><defs><linearGradient id="sw-gradient-0" x1="0" x2="0" y1="1" y2="0"><stop stop-color="rgba(109.504, 153.964, 255, 1)" offset="0%"></stop><stop stop-color="rgba(50.478, 182.255, 255, 1)" offset="100%"></stop></linearGradient></defs><path style="transform:translate(0, 0px); opacity:1" fill="url(#sw-gradient-0)" d="M0,0L80,12.7C160,25,320,51,480,50.7C640,51,800,25,960,38C1120,51,1280,101,1440,139.3C1600,177,1760,203,1920,209C2080,215,2240,203,2400,202.7C2560,203,2720,215,2880,209C3040,203,3200,177,3360,158.3C3520,139,3680,127,3840,120.3C4000,114,4160,114,4320,139.3C4480,165,4640,215,4800,234.3C4960,253,5120,241,5280,215.3C5440,190,5600,152,5760,171C5920,190,6080,266,6240,297.7C6400,329,6560,317,6720,310.3C6880,304,7040,304,7200,266C7360,228,7520,152,7680,145.7C7840,139,8000,203,8160,196.3C8320,190,8480,114,8640,69.7C8800,25,8960,13,9120,38C9280,63,9440,127,9600,133C9760,139,9920,89,10080,95C10240,101,10400,165,10560,164.7C10720,165,10880,101,11040,88.7C11200,76,11360,114,11440,133L11520,152L11520,380L11440,380C11360,380,11200,380,11040,380C10880,380,10720,380,10560,380C10400,380,10240,380,10080,380C9920,380,9760,380,9600,380C9440,380,9280,380,9120,380C8960,380,8800,380,8640,380C8480,380,8320,380,8160,380C8000,380,7840,380,7680,380C7520,380,7360,380,7200,380C7040,380,6880,380,6720,380C6560,380,6400,380,6240,380C6080,380,5920,380,5760,380C5600,380,5440,380,5280,380C5120,380,4960,380,4800,380C4640,380,4480,380,4320,380C4160,380,4000,380,3840,380C3680,380,3520,380,3360,380C3200,380,3040,380,2880,380C2720,380,2560,380,2400,380C2240,380,2080,380,1920,380C1760,380,1600,380,1440,380C1280,380,1120,380,960,380C800,380,640,380,480,380C320,380,160,380,80,380L0,380Z"></path></svg>